HIERARCHY
ROOT hip
{
	OFFSET 0.000000 0.000000 0.000000
	CHANNELS 6 Xposition Yposition Zposition Zrotation Yrotation Xrotation 
	JOINT lhipjoint
	{
		OFFSET 0.000000 0.000000 0.000000
		CHANNELS 3 Zrotation Yrotation Xrotation
		JOINT lfemur
		{
			OFFSET 1.363060 -1.794630 0.839290
			CHANNELS 3 Zrotation Yrotation Xrotation
			JOINT ltibia
			{
				OFFSET 2.448110 -6.726130 0.000000
				CHANNELS 3 Zrotation Yrotation Xrotation
				JOINT lfoot
				{
					OFFSET 2.562200 -7.039590 0.000000
					CHANNELS 3 Zrotation Yrotation Xrotation
					JOINT ltoes
					{
						OFFSET 0.157640 -0.433110 2.322550
						CHANNELS 3 Zrotation Yrotation Xrotation
						End Site
						{
							OFFSET 0.000000 0.000000 0.000000
						}
					}
				}
			}
		}
	}
	JOINT rhipjoint
	{
		OFFSET 0.000000 0.000000 0.000000
		CHANNELS 3 Zrotation Yrotation Xrotation
		JOINT rfemur
		{
			OFFSET -1.305520 -1.794630 0.839290
			CHANNELS 3 Zrotation Yrotation Xrotation
			JOINT rtibia
			{
				OFFSET -2.542530 -6.985550 0.000000
				CHANNELS 3 Zrotation Yrotation Xrotation
				JOINT rfoot
				{
					OFFSET -2.568260 -7.056230 0.000000
					CHANNELS 3 Zrotation Yrotation Xrotation
					JOINT rtoes
					{
						OFFSET -0.164730 -0.452590 2.363150
						CHANNELS 3 Zrotation Yrotation Xrotation
						End Site
						{
							OFFSET 0.000000 0.000000 0.000000
						}
					}
				}
			}
		}
	}
	JOINT lowerback
	{
		OFFSET 0.000000 0.000000 0.000000
		CHANNELS 3 Zrotation Yrotation Xrotation
		JOINT upperback
		{
			OFFSET 0.028270 2.035590 -0.193380
			CHANNELS 3 Zrotation Yrotation Xrotation
			JOINT thorax
			{
				OFFSET 0.056720 2.048850 -0.042750
				CHANNELS 3 Zrotation Yrotation Xrotation
				JOINT lowerneck
				{
					OFFSET 0.000000 0.000000 0.000000
					CHANNELS 3 Zrotation Yrotation Xrotation
					JOINT upperneck
					{
						OFFSET -0.054170 1.746240 0.172020
						CHANNELS 3 Zrotation Yrotation Xrotation
						JOINT head
						{
							OFFSET 0.104070 1.761360 -0.123970
							CHANNELS 3 Zrotation Yrotation Xrotation
							End Site
							{
								OFFSET 0.000000 0.000000 0.000000
							}
						}
					}
				}
				JOINT lclavicle
				{
					OFFSET 0.000000 0.000000 0.000000
					CHANNELS 3 Zrotation Yrotation Xrotation
					JOINT lhumerus
					{
						OFFSET 3.362410 1.200890 -0.311210
						CHANNELS 3 Zrotation Yrotation Xrotation
						JOINT lradius
						{
							OFFSET 4.983000 -0.000000 -0.000000
							CHANNELS 3 Zrotation Yrotation Xrotation
							JOINT lwrist
							{
								OFFSET 3.483560 -0.000000 -0.000000
								CHANNELS 3 Zrotation Yrotation Xrotation
								JOINT lhand
								{
									OFFSET 0.000000 0.000000 0.000000
									CHANNELS 3 Zrotation Yrotation Xrotation
									JOINT lfingers
									{
										OFFSET 0.715260 -0.000000 -0.000000
										CHANNELS 3 Zrotation Yrotation Xrotation
										End Site
										{
											OFFSET 0.000000 0.000000 0.000000
										}
									}
								}
								JOINT lthumb
								{
									OFFSET 0.000000 0.000000 0.000000
									CHANNELS 3 Zrotation Yrotation Xrotation
									End Site
									{
										OFFSET 0.000000 0.000000 0.000000
									}
								}
							}
						}
					}
				}
				JOINT rclavicle
				{
					OFFSET 0.000000 0.000000 0.000000
					CHANNELS 3 Zrotation Yrotation Xrotation
					JOINT rhumerus
					{
						OFFSET -3.136600 1.374050 -0.404650
						CHANNELS 3 Zrotation Yrotation Xrotation
						JOINT rradius
						{
							OFFSET -5.241900 -0.000000 -0.000000
							CHANNELS 3 Zrotation Yrotation Xrotation
							JOINT rwrist
							{
								OFFSET -3.444170 -0.000000 -0.000000
								CHANNELS 3 Zrotation Yrotation Xrotation
								JOINT rhand
								{
									OFFSET 0.000000 0.000000 0.000000
									CHANNELS 3 Zrotation Yrotation Xrotation
									JOINT rfingers
									{
										OFFSET -0.622530 -0.000000 -0.000000
										CHANNELS 3 Zrotation Yrotation Xrotation
										End Site
										{
											OFFSET 0.000000 0.000000 0.000000
										}
									}
								}
								JOINT rthumb
								{
									OFFSET 0.000000 0.000000 0.000000
									CHANNELS 3 Zrotation Yrotation Xrotation
									End Site
									{
										OFFSET 0.000000 0.000000 0.000000
									}
								}
							}
						}
					}
				}
			}
		}
	}
}
MOTION
Frames: 10
Frame Time: 0.008333
1.853806 18.020159 16.597749 -3.987071 12.507139 -3.910853 -1.830032 3.008997 1.805020 -11.670935 -16.729158 -3.830575 3.060636 9.807429 31.224962 0.890388 -1.142163 -11.697470 0.527300 -4.653300 -12.922200 0.965488 -4.123707 2.214189 24.541562 16.555884 7.337885 -0.855814 -4.344906 16.341069 2.461129 -15.536443 -19.381819 -0.368400 3.898900 -10.792400 5.523052 2.354563 8.691594 -0.319695 3.278082 -4.340522 -4.640988 2.341085 -0.194035 -1.358888 -2.090810 0.741143 -5.501171 -2.751608 15.178416 0.693000 -2.213900 5.512800 2.518259 4.619332 0.402269 -91.485086 -1.962604 -9.626963 3.457090 -19.787620 -1.127395 -0.649196 0.249188 36.958920 9.969886 -5.907183 -1.068600 -7.125000 0.000000 0.000000 -11.893400 24.189500 6.102600 -1.118797 -4.442215 2.277529 71.820801 52.689967 34.477941 -16.082655 31.798487 -2.593653 -0.738216 -1.534532 43.184753 -14.574178 11.750232 -3.576100 7.125000 0.000000 0.000000 8.429400 -16.215500 5.804000 
1.854011 18.018827 16.604412 -3.990210 12.587362 -3.899750 -1.829962 2.995679 1.796525 -11.642668 -16.690892 -3.887362 3.070801 9.819007 31.273083 0.918776 -1.293571 -11.658859 0.526300 -4.649200 -12.910600 0.964116 -4.129772 2.217235 24.494849 16.353628 7.222258 -0.858828 -4.358131 16.376179 2.439531 -15.423777 -19.301913 -0.375100 3.933600 -10.890000 5.576635 2.401454 8.635479 -0.323986 3.331665 -4.328117 -4.626799 2.390856 -0.122600 -1.434985 -2.100376 0.726427 -5.515889 -2.742630 15.205897 0.714200 -2.216900 5.502400 2.498929 4.510919 0.414360 -91.454202 -1.816341 -9.480686 3.533304 -19.945474 -1.146750 -0.655702 0.261481 36.718951 9.800414 -5.960445 -1.064000 -7.125000 0.000000 0.000000 -12.002800 24.130600 6.177900 -1.117413 -4.283058 2.327696 71.516141 51.333108 34.340936 -18.102490 33.469296 -3.011811 -0.678276 -1.716163 42.163810 -14.104921 11.422465 -3.435100 7.125000 0.000000 0.000000 8.657600 -16.476300 5.915200 
1.854319 18.017392 16.610151 -4.006794 12.672817 -3.901920 -1.830893 2.982114 1.790063 -11.600842 -16.659387 -3.947804 3.082772 9.832842 31.329596 0.946316 -1.436280 -11.630909 0.518800 -4.616200 -12.817100 0.961691 -4.138560 2.222434 24.475083 16.198445 7.133363 -0.862839 -4.372520 16.416679 2.418739 -15.330150 -19.259701 -0.375100 3.933600 -10.889800 5.664647 2.445293 8.642870 -0.327621 3.386365 -4.323054 -4.616779 2.441198 -0.112780 -1.535297 -2.106437 0.717305 -5.540076 -2.726320 15.225228 0.738000 -2.218900 5.492700 2.473204 4.379657 0.426693 -91.432248 -1.635733 -9.315085 3.620271 -20.111549 -1.166872 -0.661640 0.272638 36.497929 9.660293 -6.013551 -1.061900 -7.125000 0.000000 0.000000 -12.091600 24.072100 6.242400 -1.106208 -4.097285 2.370052 71.063621 49.825063 34.254787 -20.306118 35.239269 -3.529871 -0.617067 -1.902242 40.910595 -13.683677 10.996868 -3.285500 7.125000 0.000000 0.000000 8.859400 -16.818900 5.989600 
1.854011 18.015342 16.614456 -3.998715 12.765269 -3.892609 -1.832368 2.967414 1.781217 -11.583761 -16.625034 -4.007958 3.094227 9.844163 31.381579 0.973626 -1.582474 -11.594362 0.518100 -4.613300 -12.808700 0.959755 -4.146869 2.227120 24.415569 16.003975 7.008269 -0.868260 -4.393550 16.473269 2.392793 -15.204753 -19.187544 -0.375700 3.936900 -10.899200 5.720076 2.487289 8.653033 -0.331257 3.434988 -4.313581 -4.585404 2.489865 -0.083524 -1.632818 -2.113412 0.673951 -5.583257 -2.711658 15.247054 0.747900 -2.221100 5.489400 2.447452 4.246542 0.440472 -91.421306 -1.491528 -9.183041 3.703876 -20.272515 -1.186970 -0.667343 0.283633 36.285136 9.525134 -6.058145 -1.058400 -7.125000 0.000000 0.000000 -12.177600 24.022000 6.303200 -1.080632 -3.910766 2.407581 70.550188 48.257953 34.172599 -22.627747 37.071394 -4.158296 -0.557934 -2.094351 39.599971 -13.462316 10.412330 -3.148700 7.125000 0.000000 0.000000 8.929200 -17.291400 5.944700 
1.853499 18.012779 16.617326 -4.011649 12.857227 -3.884501 -1.833715 2.952183 1.773547 -11.539545 -16.576393 -4.094517 3.107492 9.859069 31.443924 1.001811 -1.733580 -11.555283 0.518400 -4.614500 -12.812300 0.957911 -4.154821 2.231710 24.374008 15.797175 6.859812 -0.874593 -4.415219 16.534363 2.372975 -15.090940 -19.090201 -0.380500 3.961500 -10.968400 5.803190 2.514422 8.673267 -0.333014 3.467332 -4.307066 -4.568334 2.529876 -0.072602 -1.733422 -2.103082 0.634590 -5.617380 -2.676171 15.270438 0.763100 -2.213800 5.489200 2.416356 4.113281 0.451599 -91.370928 -1.345871 -9.008348 3.781157 -20.414606 -1.205268 -0.670066 0.291080 36.008716 9.429558 -6.071800 -1.052900 -7.125000 0.000000 0.000000 -12.240400 24.002200 6.342900 -1.049474 -3.726241 2.442027 70.072852 46.655198 34.090808 -24.976653 38.911763 -4.889192 -0.511244 -2.281145 38.322160 -13.512330 9.785833 -3.062000 7.125000 0.000000 0.000000 8.824200 -17.776000 5.778000 
1.852679 18.011549 16.618863 -4.002146 12.967824 -3.877138 -1.837006 2.937732 1.764399 -11.521063 -16.554067 -4.173207 3.120850 9.872125 31.504292 1.028513 -1.884592 -11.502271 0.517900 -4.612400 -12.806300 0.955198 -4.162679 2.236938 24.302440 15.569582 6.695737 -0.883040 -4.444548 16.616657 2.339420 -14.938578 -19.021317 -0.379900 3.958600 -10.960200 5.858492 2.533703 8.714534 -0.331578 3.488182 -4.301613 -4.523810 2.561340 -0.082539 -1.849115 -2.091955 0.618651 -5.667814 -2.636835 15.291007 0.771900 -2.205400 5.482900 2.384673 3.976060 0.464827 -91.325359 -1.164841 -8.774947 3.875028 -20.591005 -1.227432 -0.672120 0.298277 35.664418 9.364549 -6.095615 -1.052600 -7.125000 0.000000 0.000000 -12.280200 23.970800 6.373600 -1.012550 -3.540375 2.469525 69.602847 44.994096 33.966842 -27.365554 40.766108 -5.731753 -0.476764 -2.457924 37.115018 -13.804197 9.164607 -3.022800 7.125000 0.000000 0.000000 8.562800 -18.234700 5.515400 
1.851551 18.009602 16.618351 -4.015220 13.080077 -3.870125 -1.841338 2.923102 1.755946 -11.470161 -16.531964 -4.273683 3.135282 9.888391 31.572669 1.057407 -2.048390 -11.442995 0.510400 -4.579500 -12.712900 0.951668 -4.170130 2.240991 24.257999 15.349740 6.515753 -0.892767 -4.474306 16.703127 2.321630 -14.833870 -18.928092 -0.385300 3.986100 -11.037500 5.933076 2.532344 8.773767 -0.323974 3.485957 -4.297598 -4.467868 2.580084 -0.102625 -1.956672 -2.065156 0.578951 -5.749105 -2.576194 15.308310 0.760500 -2.186400 5.481200 2.357636 3.840602 0.477628 -91.302115 -0.995838 -8.605609 3.965740 -20.755338 -1.248874 -0.673057 0.303334 35.339579 9.346520 -6.109746 -1.055000 -7.125000 0.000000 0.000000 -12.288300 23.949400 6.384300 -0.965982 -3.360078 2.488986 69.135356 43.341055 33.851377 -29.775913 42.608349 -6.683579 -0.460329 -2.623799 35.873256 -14.353231 8.614583 -3.046200 7.125000 0.000000 0.000000 8.137700 -18.596400 5.170100 
1.850014 18.007655 16.618043 -4.002933 13.206162 -3.871846 -1.846166 2.909555 1.745280 -11.450606 -16.521138 -4.367231 3.150783 9.904789 31.644242 1.085362 -2.209688 -11.382048 0.507000 -4.564200 -12.669700 0.948460 -4.175887 2.244232 24.176651 15.097988 6.324133 -0.902953 -4.507946 16.798529 2.290759 -14.677702 -18.827209 -0.386400 3.991600 -11.053200 5.975068 2.525285 8.826931 -0.315288 3.473900 -4.290118 -4.404213 2.590968 -0.114727 -2.057813 -2.045978 0.575061 -5.831753 -2.522075 15.298435 0.747800 -2.166900 5.455700 2.329854 3.719515 0.492716 -91.245342 -0.799245 -8.243772 4.075087 -20.962999 -1.276697 -0.668387 0.308197 34.818603 9.355736 -6.048431 -1.047500 -7.125000 0.000000 0.000000 -12.285400 23.996600 6.369000 -0.920870 -3.192602 2.509656 68.786497 41.718399 33.694275 -32.120984 44.390226 -7.716038 -0.466527 -2.776225 34.757913 -15.198281 8.187927 -3.153400 7.125000 0.000000 0.000000 7.518200 -18.807600 4.733800 
1.848476 18.005810 16.617428 -4.000535 13.335873 -3.864199 -1.852385 2.897207 1.734393 -11.423751 -16.537427 -4.461100 3.167401 9.923051 31.721863 1.110326 -2.352960 -11.330880 0.506700 -4.562900 -12.665800 0.944736 -4.181342 2.246896 24.113046 14.857662 6.129147 -0.914337 -4.542971 16.900080 2.266701 -14.549095 -18.732900 -0.394900 4.035100 -11.175400 6.024777 2.510917 8.877540 -0.302523 3.454002 -4.283583 -4.333199 2.597026 -0.121895 -2.159852 -2.025582 0.551360 -5.933216 -2.467008 15.300119 0.722500 -2.148200 5.440900 2.307429 3.603939 0.505620 -91.215730 -0.611468 -7.968234 4.185960 -21.169508 -1.304288 -0.664999 0.311040 34.378159 9.421564 -6.016346 -1.050500 -7.125000 0.000000 0.000000 -12.239200 24.017400 6.337900 -0.876021 -3.036110 2.530946 68.584809 40.083239 33.489703 -34.512727 46.179176 -8.863009 -0.490215 -2.914062 33.728170 -16.214923 7.927348 -3.334900 7.125000 0.000000 0.000000 6.790500 -18.835000 4.264600 
1.846119 18.003657 16.615891 -3.990214 13.499106 -3.848509 -1.857965 2.884660 1.723616 -11.392736 -16.541536 -4.575556 3.184385 9.941220 31.800601 1.140030 -2.528973 -11.257886 0.503500 -4.549000 -12.626500 0.941396 -4.186145 2.249724 24.043713 14.605947 5.917632 -0.927986 -4.583145 17.018596 2.237226 -14.417226 -18.678874 -0.396400 4.042700 -11.196700 6.062532 2.480410 8.943030 -0.289711 3.412793 -4.280196 -4.275472 2.590539 -0.148916 -2.246042 -2.004655 0.527915 -6.041137 -2.412588 15.295607 0.688900 -2.128200 5.425000 2.284002 3.488960 0.515063 -91.154017 -0.419984 -7.705393 4.284530 -21.346380 -1.328138 -0.660289 0.309807 33.957118 9.539813 -5.981111 -1.057600 -7.125000 0.000000 0.000000 -12.157800 24.043400 6.286300 -0.833147 -2.881680 2.553872 68.503863 38.393950 33.248299 -37.018158 47.999346 -10.152201 -0.532033 -3.036969 32.761286 -17.362243 7.857841 -3.600300 7.125000 0.000000 0.000000 5.987400 -18.651000 3.778900 
